<?xml version="1.0" encoding="UTF-8"?>
<svg width="24px" height="24px" viewBox="0 0 24 24" version="1.1" xmlns="http://www.w3.org/2000/svg" xmlns:xlink="http://www.w3.org/1999/xlink">
    <title>Add Address</title>
    <g id="Page-1" stroke="none" stroke-width="1" fill="none" fill-rule="evenodd">
        <g id="B01" transform="translate(-291.000000, -511.000000)" fill="#332372" fill-rule="nonzero">
            <path d="M303,511 C309.627417,511 315,516.372583 315,523 C315,529.627417 309.627417,535 303,535 C296.372583,535 291,529.627417 291,523 C291,516.372583 296.372583,511 303,511 Z M303,512 C296.924868,512 292,516.924868 292,523 C292,529.075132 296.924868,534 303,534 C309.075132,534 314,529.075132 314,523 C314,516.924868 309.075132,512 303,512 Z M303,517.5 C303.256418,517.5 303.467754,517.69302 303.496636,517.941689 L303.5,518 L303.5,522.5 L308,522.5 C308.276142,522.5 308.5,522.723858 308.5,523 C308.5,523.256418 308.30698,523.467754 308.058311,523.496636 L308,523.5 L303.5,523.5 L303.5,528 C303.5,528.276142 303.276142,528.5 303,528.5 C302.743582,528.5 302.532246,528.30698 302.503364,528.058311 L302.5,528 L302.5,523.5 L298,523.5 C297.723858,523.5 297.5,523.276142 297.5,523 C297.5,522.743582 297.69302,522.532246 297.941689,522.503364 L298,522.5 L302.5,522.5 L302.5,518 C302.5,517.723858 302.723858,517.5 303,517.5 Z" id="Add-Address"></path>
        </g>
    </g>
</svg>