<?xml version="1.0" encoding="UTF-8"?>
<svg width="40px" height="40px" viewBox="0 0 40 40" version="1.1" xmlns="http://www.w3.org/2000/svg" xmlns:xlink="http://www.w3.org/1999/xlink">
    <title>Alert</title>
    <g id="Page-1" stroke="none" stroke-width="1" fill="none" fill-rule="evenodd">
        <g id="A27" transform="translate(-160.000000, -170.000000)" fill="#FF8B00">
            <g id="Alert" transform="translate(160.000000, 170.000000)">
                <path d="M20,0 C31.046,0 40,8.954 40,20 C40,31.046 31.046,40 20,40 C8.954,40 0,31.046 0,20 C0,8.954 8.954,0 20,0 Z M20,2 C10.075,2 2,10.075 2,20 C2,29.925 10.075,38 20,38 C29.925,38 38,29.925 38,20 C38,10.075 29.925,2 20,2 Z" id="Fill-1"></path>
                <path d="M20,25.4834 C19.447,25.4834 19,25.0354 19,24.4834 L19,8.7034 C19,8.1514 19.447,7.7034 20,7.7034 C20.553,7.7034 21,8.1514 21,8.7034 L21,24.4834 C21,25.0354 20.553,25.4834 20,25.4834" id="Fill-3"></path>
                <path d="M22,30.2964 C22,31.4014 21.104,32.2964 20,32.2964 C18.896,32.2964 18,31.4014 18,30.2964 C18,29.1924 18.896,28.2964 20,28.2964 C21.104,28.2964 22,29.1924 22,30.2964" id="Fill-5"></path>
            </g>
        </g>
    </g>
</svg>