<svg id="Layer_1" data-name="Layer 1" xmlns="http://www.w3.org/2000/svg" viewBox="0 0 39 12"><defs><style>.cls-1{fill:#f4991a;}.cls-2{fill:#221f1f;}</style></defs><path class="cls-1" d="M24.19,9.31a14.77,14.77,0,0,1-8.37,2.57A15.16,15.16,0,0,1,5.58,8c-.21-.19,0-.45.23-.3a20.68,20.68,0,0,0,10.24,2.71,20.37,20.37,0,0,0,7.82-1.6c.38-.16.7.26.32.53m.95-1.07c-.29-.37-1.92-.18-2.65-.09-.22,0-.25-.17,0-.31A4,4,0,0,1,26.1,7.5c.25.31-.06,2.44-1.28,3.45-.18.16-.36.08-.28-.13.27-.68.89-2.21.6-2.58"/><path class="cls-2" d="M22.54,1.41V.52A.22.22,0,0,1,22.77.3h4A.22.22,0,0,1,27,.52v.76c0,.13-.1.29-.3.56L24.61,4.77a4.37,4.37,0,0,1,2.26.49.38.38,0,0,1,.21.34v1c0,.13-.14.28-.29.2a4.56,4.56,0,0,0-4.19,0c-.14.07-.28-.08-.28-.21v-.9a1.06,1.06,0,0,1,.14-.6l2.39-3.42H22.77a.22.22,0,0,1-.23-.22M8.07,6.94H6.86a.23.23,0,0,1-.21-.21V.54A.23.23,0,0,1,6.88.31H8a.24.24,0,0,1,.22.21v.81h0a1.65,1.65,0,0,1,3.15,0A1.78,1.78,0,0,1,14.47.86a3.31,3.31,0,0,1,.3,1.94V6.71a.23.23,0,0,1-.23.23H13.33a.24.24,0,0,1-.22-.23V3.43a7.46,7.46,0,0,0,0-1.16.63.63,0,0,0-.71-.54.8.8,0,0,0-.72.51,3.89,3.89,0,0,0-.11,1.19V6.71a.23.23,0,0,1-.24.23H10.1a.24.24,0,0,1-.22-.23V3.43c0-.69.11-1.71-.74-1.71s-.84,1-.84,1.71V6.71a.23.23,0,0,1-.23.23M30.38.18c1.79,0,2.76,1.54,2.76,3.5s-1.07,3.39-2.76,3.39-2.72-1.54-2.72-3.46,1-3.43,2.72-3.43m0,1.27c-.89,0-.95,1.21-.95,2s0,2.37.94,2.37,1-1.31,1-2.1a5.62,5.62,0,0,0-.18-1.64.76.76,0,0,0-.79-.6m5.07,5.49h-1.2A.24.24,0,0,1,34,6.71V.52a.23.23,0,0,1,.23-.21h1.12a.25.25,0,0,1,.22.18v.94h0A1.65,1.65,0,0,1,37.28.18a1.58,1.58,0,0,1,1.4.73A3.9,3.9,0,0,1,39,2.84v3.9a.23.23,0,0,1-.23.2H37.56a.24.24,0,0,1-.22-.2V3.38c0-.68.08-1.67-.75-1.67a.77.77,0,0,0-.7.49,2.77,2.77,0,0,0-.19,1.18V6.71a.23.23,0,0,1-.24.23M19.38,4V3.72c-.87,0-1.79.18-1.79,1.21,0,.52.27.88.73.88a1,1,0,0,0,.83-.55A2.35,2.35,0,0,0,19.38,4M20.6,6.92a.26.26,0,0,1-.29,0,2.89,2.89,0,0,1-.69-.81,2.38,2.38,0,0,1-2,.88,1.71,1.71,0,0,1-1.81-1.88,2.05,2.05,0,0,1,1.29-2,8.35,8.35,0,0,1,2.27-.42V2.59a1.54,1.54,0,0,0-.15-.87.81.81,0,0,0-.67-.32.92.92,0,0,0-1,.73.25.25,0,0,1-.21.22l-1.17-.13A.21.21,0,0,1,16,2,2.45,2.45,0,0,1,18.73.12a2.75,2.75,0,0,1,1.81.6c.59.55.53,1.28.53,2.08V4.68a1.66,1.66,0,0,0,.46,1.12.23.23,0,0,1,0,.32l-.93.8h0M3.56,4V3.72c-.88,0-1.8.18-1.8,1.21,0,.52.27.88.74.88a1,1,0,0,0,.83-.55A2.35,2.35,0,0,0,3.56,4M4.77,6.92a.24.24,0,0,1-.28,0,2.89,2.89,0,0,1-.69-.81,2.39,2.39,0,0,1-2,.88A1.71,1.71,0,0,1,0,5.14a2,2,0,0,1,1.29-2,8.28,8.28,0,0,1,2.27-.42V2.59a1.54,1.54,0,0,0-.15-.87.82.82,0,0,0-.68-.32.92.92,0,0,0-1,.73.25.25,0,0,1-.21.22L.38,2.22A.21.21,0,0,1,.2,2,2.45,2.45,0,0,1,2.9.12a2.76,2.76,0,0,1,1.82.6c.59.55.53,1.28.53,2.08V4.68A1.66,1.66,0,0,0,5.71,5.8c.07.11.09.24,0,.32l-.92.8h0"/></svg>