<svg data-name="Layer 1" xmlns="http://www.w3.org/2000/svg" viewBox="0 0 74 52"><path d="M41.09 11.05a2.58 2.58 0 0 1-.19.43.54.54 0 0 1-.3.2c-.07 0-.21-.16-.21-.24a8.24 8.24 0 0 1 .08-1.22 1.8 1.8 0 0 1 .35-.8c.33-.39.23-.68 0-1s-.42-.67-.67-1.06a8.36 8.36 0 0 0-.62 2.53 14.12 14.12 0 0 0 0 1.84.61.61 0 0 1-.36.68 5.32 5.32 0 0 1-3.94.3 4.41 4.41 0 0 0-1.45 0c-.06 0-.12.24-.15.37a3.44 3.44 0 0 1-3.1 2.66 3.4 3.4 0 0 1-3.41-2.16 3.36 3.36 0 0 1 1.13-3.9 3.41 3.41 0 0 1 4.08 0l.37.3.82-.56c-.23-.17-.41-.32-.61-.44a6.71 6.71 0 0 0-3.67-.81c-.6 0-1.21.06-1.81.08a.83.83 0 0 1-.92-.5c0-.11.15-.38.3-.45a6.07 6.07 0 0 1 1.41-.55 19.09 19.09 0 0 1 2.15-.21.79.79 0 0 1 .82.53 1.29 1.29 0 0 0 1.52.81c.45-.05.91-.06 1.36-.13a.57.57 0 0 0 .43-.27C35 5.7 36.38 5.3 37.89 5c.27 0 .56-.08.83-.12 0 0 .05 0 .13-.06l-.6-1.44c-.39.28-.74.53-1.08.79s-.67.29-.9 0a.58.58 0 0 1 .13-.9 20.26 20.26 0 0 1 1.81-1.2c.44-.25.75-.1.95.37.28.69.28.69 1 .64a.92.92 0 0 1 1 .63c.18.44.36.89.51 1.35.23.69.09.91-.63 1l-.27.06L42 8.13a4 4 0 0 1 3.44-.05 5 5 0 0 1 .84.72l-.57.2a3 3 0 0 1-1.59 5.55c-1.75 0-2.85-1.2-3-3.45m-8.77 1.72-1.73.15c-.38 0-.73 0-.87-.4s.08-.64.4-.85c.48-.31.95-.64 1.43-1a2 2 0 0 0-2.39-.09 2 2 0 0 0-.86 2.37 2.1 2.1 0 0 0 2.18 1.36 2 2 0 0 0 1.81-1.57m10.23-2a1.69 1.69 0 0 0 .68 2.2 1.7 1.7 0 0 0 2-2.69 1.48 1.48 0 0 0-1.83-.3l.89.91c.37.36.43.67.18.94s-.57.24-1-.14-.61-.62-1-.95m-8.16.14a5.85 5.85 0 0 0-.52.37.24.24 0 0 0-.07.21c0 .09.1.24.15.24a6.9 6.9 0 0 0 .75 0l-.31-.77m-28 8L7 31.16l66.67-3.52-2.37-6 1.84-6ZM.49 32.31l2.82 5.9-2.25 5 67.05-3.6-.57-10.94Zm17.22 12.58a.17.17 0 0 0-.18-.12.21.21 0 0 0-.19.14l-.71 2-2.13.26a.24.24 0 0 0-.19.16.2.2 0 0 0 .08.21l1.7 1.27-.38 2.05a.2.2 0 0 0 .07.21.23.23 0 0 0 .25 0l1.77-1.19 1.86 1a.2.2 0 0 0 .24 0 .21.21 0 0 0 .08-.22l-.62-2 1.56-1.44A.23.23 0 0 0 21 47a.26.26 0 0 0-.21-.14h-2.14Zm8.76-.51a.17.17 0 0 0-.19-.12.19.19 0 0 0-.19.14l-.71 2-2.13.27c-.09 0-.15.07-.19.16a.2.2 0 0 0 .08.21l1.7 1.27-.38 2a.18.18 0 0 0 .08.21.19.19 0 0 0 .24 0l1.77-1.19 1.86 1a.23.23 0 0 0 .32-.25l-.61-2 1.56-1.43a.21.21 0 0 0 .05-.22.22.22 0 0 0-.21-.14h-2.14Zm9.78-1a.18.18 0 0 0-.18-.12.22.22 0 0 0-.2.14l-.71 2-2.16.2a.22.22 0 0 0-.19.16.19.19 0 0 0 .07.21l1.7 1.27-.38 2a.2.2 0 0 0 .08.21.19.19 0 0 0 .24 0l1.77-1.19 1.87 1a.2.2 0 0 0 .24 0 .19.19 0 0 0 .07-.22l-.61-2 1.56-1.44a.2.2 0 0 0 0-.22.24.24 0 0 0-.2-.14h-2.15Zm8.75-.55a.15.15 0 0 0-.18-.12.18.18 0 0 0-.19.14l-.71 2-2.13.27c-.09 0-.15.07-.19.16a.2.2 0 0 0 .08.21l1.7 1.27-.38 2a.21.21 0 0 0 .32.22l1.77-1.19 1.86 1a.19.19 0 0 0 .24 0 .23.23 0 0 0 .08-.22l-.62-2 1.56-1.44a.23.23 0 0 0 .06-.22.22.22 0 0 0-.21-.14h-2.14Zm8.24-.52a.17.17 0 0 0-.18-.12c-.09 0-.18.06-.19.14l-.72 2-2.15.24a.24.24 0 0 0-.19.16.19.19 0 0 0 .07.21l1.7 1.27-.37 2a.18.18 0 0 0 .07.21.23.23 0 0 0 .25 0l1.76-1.19 1.87 1a.23.23 0 0 0 .34-.23l-.61-2 1.56-1.44a.2.2 0 0 0 0-.22.23.23 0 0 0-.2-.14h-2.14Z" fill="#008e86" fill-rule="evenodd"/><path d="m58.11 24.88 1-3.79 1.32 3.67 1.13-.05 1.39-5.53-1 .05c-.1 0-.35.11-.39.3 0 0-.68 3.36-.69 3.47 0-.11-1.21-3.37-1.21-3.37a.52.52 0 0 0-.43-.25h-.38a.43.43 0 0 0-.39.29s-.84 3.39-.86 3.51c0-.11-1.06-3.41-1.06-3.41s-.16-.23-.43-.25l-1 .05 2 5.35Zm-3.11.17v-1l-2.22.11-.07-1.29 1.7-.09v-.93l-1.7.09-.06-1.27 2.22-.12-.05-1-3.49.18.29 5.44Zm-4.48.23-.29-5.43-1.23.06.28 5.44Zm-4 .21 1.88-5.55h-1a.52.52 0 0 0-.4.3s-1.07 3.76-1.09 3.91c-.06-.16-1.53-3.72-1.53-3.72-.05-.19-.32-.26-.43-.26l-1 .06 2.45 5.32Zm-3.52.19-.05-1-2.22.11-.07-1.29 1.7-.09v-.93l-1.7.09-.06-1.27 2.22-.12-.06-1-3.48.18.29 5.44Zm-7.32-2.51-.08-1.61h.5a1.09 1.09 0 0 1 .73.17.66.66 0 0 1 .26.55.84.84 0 0 1-.18.61 2.57 2.57 0 0 1-1.27.28Zm.15 2.88-.1-2H36a.32.32 0 0 1 .37.17l1 1.53a.48.48 0 0 0 .47.22l1.16-.08-1.24-1.83a1.11 1.11 0 0 0-.45-.37 1.71 1.71 0 0 0 .45-.28 1.6 1.6 0 0 0 .54-1.13 1.86 1.86 0 0 0-.59-1.28 2.17 2.17 0 0 0-1.7-.37l-1.75.09.28 5.44Zm-3.4.18v-1l-2.22.12-.06-1.3 1.7-.09-.05-.93-1.7.09-.07-1.27 2.22-.11v-1l-3.62.26.28 5.43Zm-7.52.4-.12-2.32h.3a.5.5 0 0 1 .46.16l1.32 1.83a.73.73 0 0 0 .5.21l1.12-.06-1.8-2.45c-.1-.15-.42-.43-.49-.36a3.62 3.62 0 0 0 .35-.35L28 21l-1.09.06a.62.62 0 0 0-.53.27l-1.12 1.84a.45.45 0 0 1-.39.2h-.2l-.12-2.2-1.25.07.28 5.43Zm-2.26.11-.29-5.43-1.26.06.29 5.44Zm-5-.69-.15-1.35s1.17-.05 1.27 0a.56.56 0 0 1 .46.57.6.6 0 0 1-.37.67c-.11.06-1.29.11-1.29.11Zm-.11-2.19-.07-1.35h1.1a.56.56 0 0 1 .48.62.62.62 0 0 1-.49.66c-.19.01-1.1.07-1.1.07Zm.99 3.14a1.82 1.82 0 0 0 1.94-1.75c-.07-1.08-.75-1.05-1.11-1.12a1.13 1.13 0 0 0 .86-1.2A1.44 1.44 0 0 0 19 21.59a3.58 3.58 0 0 0-1-.06l-2 .11.29 5.43Zm35.16 10.8-.26-4.84 1.66-.09-.09-1.13-4.65.26.06 1.09 1.66-.09.25 4.84Zm-5.5.35a2.24 2.24 0 0 0 .89-.2 1.8 1.8 0 0 0 1-1.1 2 2 0 0 0 .1-.77 1.63 1.63 0 0 0-.14-.63 1.78 1.78 0 0 0-.32-.43 1.57 1.57 0 0 0-.44-.28 4.24 4.24 0 0 0-.5-.18l-.49-.13a3.62 3.62 0 0 1-.43-.14 1 1 0 0 1-.31-.19.41.41 0 0 1-.13-.29.55.55 0 0 1 .17-.45.87.87 0 0 1 .56-.2 1.59 1.59 0 0 1 .4 0 1.33 1.33 0 0 1 .32.12l.25.12a.53.53 0 0 0 .2.05.38.38 0 0 0 .17-.06.4.4 0 0 0 .12-.16l.31-.65a2 2 0 0 0-.37-.25 2.35 2.35 0 0 0-.44-.17 2.77 2.77 0 0 0-.5-.1 3.09 3.09 0 0 0-.53 0 2.42 2.42 0 0 0-.85.19 2 2 0 0 0-.62.44 1.76 1.76 0 0 0-.36.58 1.9 1.9 0 0 0 0 1.35 1.31 1.31 0 0 0 .32.46 1.57 1.57 0 0 0 .44.28 2.84 2.84 0 0 0 .49.17l.49.12a3 3 0 0 1 .42.13.87.87 0 0 1 .31.2.45.45 0 0 1 .13.33.63.63 0 0 1-.17.54 1 1 0 0 1-.57.19 1.48 1.48 0 0 1-.49-.05l-.36-.15-.26-.18a.4.4 0 0 0-.25-.06.34.34 0 0 0-.17 0 .46.46 0 0 0-.12.12l-.37.67a1.84 1.84 0 0 0 .42.29 3 3 0 0 0 .52.22 2.72 2.72 0 0 0 1.12.16Zm-2.41.06-.06-1.05-2.42.12-.07-1.41 1.85-.1v-1l-1.86.09-.07-1.38 2.42-.13-.05-1.06-3.8.2.28 5.88Zm-6.15.33-.26-4.84 1.63-.13v-1.09l-4.69.25.06 1.09 1.63-.09.25 4.84ZM32 38.9s-.21-3.66-.22-3.76l3 3.39a.62.62 0 0 0 .49.2h.72l-.31-5.93-1.21.07s.21 3.65.23 3.77l-3-3.42a.71.71 0 0 0-.46-.19h-.73l.25 5.97Zm-5.13-.81a1.73 1.73 0 0 1-1.77-1.81c0-.92.13-2 1.57-2s1.76.87 1.76 1.81-.43 2-1.6 2Zm.06 1.14A2.82 2.82 0 0 0 29.79 36c-.06-1.93-1.27-2.87-3.22-2.87s-2.91 1.41-2.91 3.19a2.93 2.93 0 0 0 3.23 2.91Zm-5.35.28a3.34 3.34 0 0 0 1.26-.3 2.3 2.3 0 0 0 .85-.76l-.57-.54a.27.27 0 0 0-.1-.06.16.16 0 0 0-.1 0 .2.2 0 0 0-.11 0l-.1.07a1.77 1.77 0 0 1-.23.19.85.85 0 0 1-.25.13l-.28.08a1.79 1.79 0 0 1-.34 0 1.41 1.41 0 0 1-1.13-.43 2 2 0 0 1-.37-.58 2.42 2.42 0 0 1-.16-.8 2.57 2.57 0 0 1 .06-.81 1.87 1.87 0 0 1 .29-.62 1.37 1.37 0 0 1 .47-.39 1.49 1.49 0 0 1 .61-.16 1.53 1.53 0 0 1 .38 0 1.15 1.15 0 0 1 .28.06l.21.09.17.09.14.08a.32.32 0 0 0 .14 0 .29.29 0 0 0 .17 0l.1-.11.43-.65a2.46 2.46 0 0 0-.4-.3 2.62 2.62 0 0 0-.48-.22 3.28 3.28 0 0 0-.56-.14 2.63 2.63 0 0 0-.63 0 3 3 0 0 0-1.18.28 2.68 2.68 0 0 0-.9.68 2.83 2.83 0 0 0-.56 1 3.53 3.53 0 0 0-.15 1.23 3.63 3.63 0 0 0 .27 1.2 2.71 2.71 0 0 0 .62.93 2.62 2.62 0 0 0 .93.58 3 3 0 0 0 1.18.18Z" fill="#fff"/></svg>