<?xml version="1.0" encoding="UTF-8"?>
<svg width="16px" height="18px" viewBox="0 0 16 18" version="1.1" xmlns="http://www.w3.org/2000/svg" xmlns:xlink="http://www.w3.org/1999/xlink">
    <title>Delete</title>
    <g id="Page-1" stroke="none" stroke-width="1" fill="none" fill-rule="evenodd">
        <g id="A18" transform="translate(-315.000000, -400.000000)" fill="#332372" stroke="#332372" stroke-width="0.5">
            <g id="Group-6-Copy-4" transform="translate(315.000000, 401.000000)">
                <path d="M8.83298462,0.0137002254 C8.85210285,0.0145798297 11.0827522,0.147823541 11.2127922,2.04586468 L15.8099692,2.04680138 C15.9153231,2.04680138 16,2.12471881 16,2.22166258 C16,2.31860635 15.9153231,2.39652378 15.8099692,2.39652378 L14.928,2.396 L14.9288369,14.3635529 C14.9288369,14.3839609 14.9250132,14.4035916 14.91798,14.4218538 C14.9244246,14.4382497 14.9274585,14.455918 14.9274585,14.4742681 C14.9274585,15.5198112 13.8591508,15.9284247 13.2949662,15.998188 L3.61521231,16 C1.69324308,15.780744 1.61742769,14.4960125 1.61644308,14.4824223 C1.61552678,14.4600788 1.61924713,14.43852 1.62682296,14.418533 C1.62011226,14.4020507 1.61654154,14.3831606 1.61654154,14.3635529 L1.616,2.396 L0.190030769,2.39652378 C0.0846769231,2.39652378 1.24344979e-14,2.31860635 1.24344979e-14,2.22166258 C1.24344979e-14,2.12471881 0.0846769231,2.04680138 0.190030769,2.04680138 L5.32855055,2.04705913 C5.36273743,1.89349036 5.44362378,1.72073835 5.50695385,1.60013522 C5.78461538,1.07192757 6.66978462,-0.142134623 8.83298462,0.0137002254 Z M14.548,2.396 L1.996,2.396 L1.99660308,14.3635529 L1.98695385,14.418617 L1.98695385,14.418617 L1.99650462,14.467926 L1.99650462,14.467926 C1.99847385,14.5096028 2.07232,15.4717923 3.63884308,15.6511836 L13.2693662,15.6502776 C13.2969354,15.6448415 14.5473969,15.4736044 14.5473969,14.4742681 C14.5473969,14.4544754 14.5509266,14.4354758 14.5574413,14.4177705 C14.5520404,14.4006058 14.5487754,14.3824112 14.5487754,14.3635529 L14.548,2.396 Z M5.04073846,4.6631054 C5.14510769,4.6631054 5.23076923,4.74192884 5.23076923,4.83887261 L5.23076923,13.1814731 C5.23076923,13.2775108 5.14510769,13.3554283 5.04073846,13.3554283 C4.93538462,13.3554283 4.85070769,13.2775108 4.85070769,13.1814731 L4.85070769,4.83887261 C4.85070769,4.74192884 4.93538462,4.6631054 5.04073846,4.6631054 Z M8.46375385,4.6631054 C8.56812308,4.6631054 8.65378462,4.74192884 8.65378462,4.83887261 L8.65378462,13.1814731 C8.65378462,13.2775108 8.56812308,13.3554283 8.46375385,13.3554283 C8.3584,13.3554283 8.27372308,13.2775108 8.27372308,13.1814731 L8.27372308,4.83887261 C8.27372308,4.74192884 8.3584,4.6631054 8.46375385,4.6631054 Z M11.5066092,4.6631054 C11.6109785,4.6631054 11.69664,4.74192884 11.69664,4.83887261 L11.69664,13.1814731 C11.69664,13.2775108 11.6109785,13.3554283 11.5066092,13.3554283 C11.4012554,13.3554283 11.3165785,13.2775108 11.3165785,13.1814731 L11.3165785,4.83887261 C11.3165785,4.74192884 11.4012554,4.6631054 11.5066092,4.6631054 Z M6.43938462,1.01847259 C5.99113455,1.39994981 5.79431109,1.82769823 5.72339667,2.04772043 L10.83,2.046 L10.8308252,2.03517401 C10.6969399,0.475420681 8.88801368,0.366912459 8.80836923,0.363422617 C7.82670769,0.295471375 7.03113846,0.513821366 6.43938462,1.01847259 Z" id="Delete"></path>
            </g>
        </g>
    </g>
</svg>