<?xml version="1.0" encoding="UTF-8"?>
<svg width="32px" height="32px" viewBox="0 0 32 32" version="1.1" xmlns="http://www.w3.org/2000/svg" xmlns:xlink="http://www.w3.org/1999/xlink">
    <title>icon 2 selected</title>
    <g id="Page-1" stroke="none" stroke-width="1" fill="none" fill-rule="evenodd">
        <g id="A06" transform="translate(-15.000000, -274.000000)">
            <g id="icon-2-selected" transform="translate(16.000000, 275.000000)">
                <circle id="Oval-Copy-7" stroke="#A60072" fill="#FFFFFF" cx="15" cy="15" r="15"></circle>
                <g id="Icons/Mail-Copy" transform="translate(7.500000, 7.500000)" fill="#A60072">
                    <g id="Group">
                        <path d="M13.0455938,7.3378125 C12.8609063,7.3378125 12.7118438,7.185 12.7118438,6.9965625 L12.7118438,2.6878125 L2.40684375,2.6878125 L2.40684375,6.9965625 C2.40684375,7.185 2.25778125,7.3378125 2.07309375,7.3378125 C1.88934375,7.3378125 1.73934375,7.185 1.73934375,6.9965625 L1.73934375,2.345625 C1.73934375,2.1571875 1.88934375,2.004375 2.07309375,2.004375 L13.0455938,2.004375 C13.2293438,2.004375 13.3793438,2.1571875 13.3793438,2.345625 L13.3793438,6.9965625 C13.3793438,7.185 13.2293438,7.3378125 13.0455938,7.3378125" id="Fill-11"></path>
                        <path d="M9.08596875,2.56790625 C8.99690625,2.56790625 8.90690625,2.53884375 8.83190625,2.47884375 L7.63096875,1.53571875 L6.33909375,2.48353125 C6.15159375,2.62321875 5.89190625,2.57821875 5.75690625,2.38603125 C5.62284375,2.19478125 5.66596875,1.92665625 5.85253125,1.78978125 L7.39659375,0.65728125 C7.54565625,0.54759375 7.74815625,0.55134375 7.89440625,0.66478125 L9.34003125,1.80103125 C9.52284375,1.94540625 9.55753125,2.21259375 9.41690625,2.40009375 C9.33534375,2.50978125 9.21065625,2.56790625 9.08596875,2.56790625" id="Fill-13"></path>
                        <path d="M7.64765625,12.0628125 C7.38046875,12.0628125 7.11515625,11.9709375 6.89578125,11.78625 L0.15234375,6.0928125 C0.05203125,6.0084375 -0.00328125,5.8809375 0.00046875,5.7496875 C0.00515625,5.6165625 0.06890625,5.49375 0.17390625,5.4159375 L1.61953125,4.3528125 C1.80796875,4.2159375 2.06859375,4.2609375 2.20265625,4.45125 C2.33671875,4.6434375 2.29359375,4.9096875 2.10703125,5.0475 L1.10109375,5.7871875 L7.42640625,11.12625 C7.55765625,11.2378125 7.74515625,11.2340625 7.87453125,11.1215625 L13.8951562,5.8359375 L12.9960937,5.21625 C12.8057812,5.085 12.7551562,4.8178125 12.8835937,4.6228125 C13.0129687,4.426875 13.2717187,4.3753125 13.4629687,4.5075 L14.8157812,5.44125 C14.9235937,5.51625 14.9910937,5.6371875 14.9995312,5.7703125 C15.0070312,5.9034375 14.9526562,6.0328125 14.8542187,6.1190625 L8.41828125,11.7703125 C8.19609375,11.9653125 7.92234375,12.0628125 7.64765625,12.0628125" id="Fill-15"></path>
                        <path d="M10.1415,6.4003125 L5.069625,6.4003125 C4.930875,6.4003125 4.818375,6.2859375 4.818375,6.144375 C4.818375,6.0028125 4.930875,5.8875 5.069625,5.8875 L10.1415,5.8875 C10.2793125,5.8875 10.3918125,6.0028125 10.3918125,6.144375 C10.3918125,6.2859375 10.2793125,6.4003125 10.1415,6.4003125" id="Fill-17"></path>
                        <path d="M10.1415,8.12146875 L5.069625,8.12146875 C4.930875,8.12146875 4.818375,8.00615625 4.818375,7.86553125 C4.818375,7.72303125 4.930875,7.60865625 5.069625,7.60865625 L10.1415,7.60865625 C10.2793125,7.60865625 10.3918125,7.72303125 10.3918125,7.86553125 C10.3918125,8.00615625 10.2793125,8.12146875 10.1415,8.12146875" id="Fill-19"></path>
                        <path d="M14.581875,10.5961875 C14.3521875,10.5961875 14.1646875,10.404 14.1646875,10.1686875 L14.1646875,5.79525 C14.1646875,5.5599375 14.3521875,5.36775 14.581875,5.36775 C14.8125,5.36775 14.9990625,5.5599375 14.9990625,5.79525 L14.9990625,10.1686875 C14.9990625,10.404 14.8125,10.5961875 14.581875,10.5961875" id="Fill-21"></path>
                        <path d="M8.5265625,14.955 L0.418125,14.955 C0.1865625,14.955 -1.74860126e-14,14.76375 -1.74860126e-14,14.5275 L-1.74860126e-14,8.7459375 C-1.74860126e-14,8.510625 0.1865625,8.3184375 0.418125,8.3184375 C0.6478125,8.3184375 0.8353125,8.510625 0.8353125,8.7459375 L0.8353125,14.1009375 L8.5265625,14.1009375 C8.7571875,14.1009375 8.94375,14.2921875 8.94375,14.5275 C8.94375,14.76375 8.7571875,14.955 8.5265625,14.955" id="Fill-23"></path>
                        <path d="M14.5827188,14.955 L6.47428125,14.955 C6.24271875,14.955 6.05615625,14.76375 6.05615625,14.5275 C6.05615625,14.2921875 6.24271875,14.1009375 6.47428125,14.1009375 L14.1655313,14.1009375 L14.1655313,5.7628125 C14.1655313,5.5275 14.3520938,5.3353125 14.5827188,5.3353125 C14.8124063,5.3353125 14.9999063,5.5275 14.9999063,5.7628125 L14.9999063,14.5275 C14.9999063,14.76375 14.8124063,14.955 14.5827188,14.955" id="Fill-25"></path>
                    </g>
                </g>
            </g>
        </g>
    </g>
</svg>