<?xml version="1.0" encoding="UTF-8"?>
<svg width="32px" height="32px" viewBox="0 0 32 32" version="1.1" xmlns="http://www.w3.org/2000/svg" xmlns:xlink="http://www.w3.org/1999/xlink">
    <title>icon 2 Filled</title>
    <g id="Page-1" stroke="none" stroke-width="1" fill="none" fill-rule="evenodd">
        <g id="A09" transform="translate(-15.000000, -274.000000)">
            <g id="icon-2-Filled" transform="translate(16.000000, 275.000000)">
                <circle id="Oval-Copy-7" stroke="#747474" fill="#FFFFFF" cx="15" cy="15" r="15"></circle>
                <path d="M7.918125,22.455 C7.6865625,22.455 7.5,22.26375 7.5,22.0275 L7.5,16.2459375 C7.5,16.010625 7.6865625,15.8184375 7.918125,15.8184375 C8.1478125,15.8184375 8.3353125,16.010625 8.3353125,16.2459375 L8.3353125,21.6009375 L21.6655313,21.6009375 L21.6648286,17.6798597 C21.6647347,17.6761469 21.6646875,17.6724226 21.6646875,17.6686875 L21.664,14.2243062 L15.9182813,19.2703125 C15.6960938,19.4653125 15.4223438,19.5628125 15.1476563,19.5628125 C14.8804688,19.5628125 14.6151563,19.4709375 14.3957813,19.28625 L7.65234375,13.5928125 C7.55203125,13.5084375 7.49671875,13.3809375 7.50046875,13.2496875 C7.50515625,13.1165625 7.56890625,12.99375 7.67390625,12.9159375 L9.11953125,11.8528125 C9.15697716,11.825613 9.19727368,11.8055955 9.23886117,11.7924731 L9.23934375,9.845625 C9.23934375,9.6571875 9.38934375,9.504375 9.57309375,9.504375 L13.1993561,9.5046893 C13.2258279,9.42087337 13.2776147,9.34474512 13.3525313,9.28978125 L14.8965938,8.15728125 C15.0456563,8.04759375 15.2481563,8.05134375 15.3944063,8.16478125 L16.8400313,9.30103125 C16.9085859,9.35517187 16.9563105,9.42658301 16.9817714,9.50458594 L20.5455938,9.504375 C20.7293438,9.504375 20.8793438,9.6571875 20.8793438,9.845625 L20.8796849,11.9628637 C20.9084006,11.9742508 20.936339,11.9890941 20.9629688,12.0075 L22.1832489,12.8479117 C22.3646904,12.8942544 22.4999063,13.0629836 22.4999063,13.2628125 L22.4999063,22.0275 C22.4999063,22.26375 22.3124063,22.455 22.0827188,22.455 L7.918125,22.455 Z M20.2118438,10.1878125 L9.90684375,10.1878125 L9.906,14.3883062 L14.9264063,18.62625 C15.0576563,18.7378125 15.2451563,18.7340625 15.3745313,18.6215625 L20.211,14.3743062 L20.2118438,10.1878125 Z M17.6415,15.1086562 C17.7793125,15.1086562 17.8918125,15.2230312 17.8918125,15.3655312 C17.8918125,15.5061562 17.7793125,15.6214687 17.6415,15.6214687 L12.569625,15.6214687 C12.430875,15.6214687 12.318375,15.5061562 12.318375,15.3655312 C12.318375,15.2230312 12.430875,15.1086562 12.569625,15.1086562 L17.6415,15.1086562 Z M17.6415,13.3875 C17.7793125,13.3875 17.8918125,13.5028125 17.8918125,13.644375 C17.8918125,13.7859375 17.7793125,13.9003125 17.6415,13.9003125 L12.569625,13.9003125 C12.430875,13.9003125 12.318375,13.7859375 12.318375,13.644375 C12.318375,13.5028125 12.430875,13.3875 12.569625,13.3875 L17.6415,13.3875 Z M9.239,12.8173062 L8.60109375,13.2871875 L9.239,13.8253062 L9.239,12.8173062 Z M20.879,12.9793062 L20.879,13.7883062 L21.3951563,13.3359375 L20.879,12.9793062 Z M15.1309688,9.03571875 L14.491,9.5043062 L15.727,9.5043062 L15.1309688,9.03571875 Z" id="Combined-Shape" fill="#747474"></path>
            </g>
        </g>
    </g>
</svg>