<?xml version="1.0" encoding="UTF-8"?>
<svg width="32px" height="32px" viewBox="0 0 32 32" version="1.1" xmlns="http://www.w3.org/2000/svg" xmlns:xlink="http://www.w3.org/1999/xlink">
    <title>Icon 6</title>
    <g id="Page-1" stroke="none" stroke-width="1" fill="none" fill-rule="evenodd">
        <g id="A05" transform="translate(-15.000000, -538.000000)" stroke="#747474">
            <g id="Icon-6" transform="translate(16.000000, 539.000000)">
                <circle id="Oval-Copy-7" fill="#FFFFFF" cx="15" cy="15" r="15"></circle>
                <path d="M20.0925926,17.6851852 C21.422167,17.6851852 22.5,18.7630182 22.5,20.0925926 C22.5,21.422167 21.422167,22.5 20.0925926,22.5 C18.7630182,22.5 17.6851852,21.422167 17.6851852,20.0925926 C17.6851852,18.7630182 18.7630182,17.6851852 20.0925926,17.6851852 Z M18.3286481,8.81302326 C18.3385246,8.82200669 18.3478024,8.83188846 18.3558832,8.84236912 C19.2515669,9.99981279 19.1864287,11.4028997 18.9160009,12.4866476 L18.8691583,12.6642185 C19.0783591,12.8573621 19.0062313,13.229276 18.9347019,13.4927899 C18.7404654,14.2048762 18.6051883,15.0645902 18.6051883,15.3906886 C18.6051883,15.5290334 18.552514,15.6488124 18.4528518,15.73685 C18.3304439,15.8449506 18.161946,15.879986 18.0266688,15.8889694 C17.9569352,16.2000954 17.7689837,16.8172569 17.3176607,17.3784216 C17.3161642,17.387405 17.3182592,17.3963884 17.315865,17.4053719 C17.2649115,17.5922272 17.2420723,17.8102437 17.2358574,18.0285971 L17.2347585,18.2459212 L18.0246654,18.5286361 C17.9321237,18.6508078 17.8501596,18.7814345 17.7801364,18.9191529 L17.2619935,18.732823 C17.2871335,19.0023258 17.3194564,19.1936728 17.3203542,19.1981645 C17.33472,19.280812 17.3020978,19.3646573 17.2356564,19.4155634 C16.4308768,20.0312276 15.6377694,20.2366487 14.9380391,20.2366487 C13.5454622,20.2366487 12.5216054,19.423948 12.5063419,19.4113711 C12.4210454,19.3421988 12.398599,19.221222 12.453069,19.1256982 C12.4856163,19.0684288 12.5100829,18.987578 12.5282365,18.8909781 L12.5443511,18.7894186 L9.09597998,19.9114486 L8.09217535,21.8656434 L18.2017652,21.8663881 C18.3648312,22.0401441 18.5515742,22.1914155 18.7568445,22.3150529 L7.72435308,22.3148148 C7.64623948,22.3148148 7.57381231,22.27409 7.53281016,22.2073131 C7.502283,22.157006 7.49296773,22.0977715 7.50524313,22.0418637 L7.52472944,21.9875186 L8.738932,19.6236795 C8.75688915,19.5885443 8.78362535,19.5591319 8.81621425,19.5380153 L8.86912133,19.5128839 L12.5715862,18.3082063 C12.5721847,17.9851024 12.5464462,17.6407377 12.5144226,17.3924956 C12.5126269,17.3781221 12.5165176,17.3649464 12.5174154,17.3508724 C12.0445439,16.7894082 11.7584266,16.1752413 11.6333251,15.8647141 C11.6063894,15.8629174 11.5788551,15.8581263 11.5510216,15.8491429 C11.2846571,15.7658964 11.1921778,15.4164411 11.1457885,15.1610123 C11.1098742,14.9639758 11.0425349,14.7166321 10.9713049,14.454915 C10.7716813,13.7206695 10.5828319,13.0235556 10.8683506,12.7372837 C10.5831312,11.8862537 10.5250698,11.1379342 10.7016484,10.5031054 C10.8773292,9.87157042 11.23737,9.54247754 11.4049701,9.41790735 C11.533663,8.67587627 12.2220203,8.20694137 12.2537446,8.1856806 C12.2573361,8.18358446 12.2609275,8.18118888 12.2645189,8.1787933 C12.2971411,8.1599281 15.5408008,6.30305371 18.3286481,8.81302326 Z M20.0925926,18.0555556 C18.9675681,18.0555556 18.0555556,18.9675681 18.0555556,20.0925926 C18.0555556,21.2176171 18.9675681,22.1296296 20.0925926,22.1296296 C21.2176171,22.1296296 22.1296296,21.2176171 22.1296296,20.0925926 C22.1296296,18.9675681 21.2176171,18.0555556 20.0925926,18.0555556 Z M20.4074074,18.7962963 C20.6528673,18.7962963 20.8570158,18.8618056 20.8993517,18.9481942 L20.9074074,18.9814815 L20.9071852,19.5921852 L21.5185185,19.5925926 C21.6207935,19.5925926 21.7037037,19.8164502 21.7037037,20.0925926 C21.7037037,20.3380525 21.6381944,20.542201 21.5518058,20.5845369 L21.5185185,20.5925926 L20.9071852,20.5921852 L20.9074074,21.2037037 C20.9074074,21.3059787 20.6835498,21.3888889 20.4074074,21.3888889 C20.1619475,21.3888889 19.957799,21.3233796 19.9154631,21.236991 L19.9074074,21.2037037 L19.9071852,20.5921852 L19.2962963,20.5925926 C19.1940213,20.5925926 19.1111111,20.368735 19.1111111,20.0925926 C19.1111111,19.8471327 19.1766204,19.6429842 19.263009,19.6006483 L19.2962963,19.5925926 L19.9071852,19.5921852 L19.9074074,18.9814815 C19.9074074,18.8792065 20.131265,18.7962963 20.4074074,18.7962963 Z M13.0064485,17.8431642 C13.0312892,18.2456218 13.0360778,18.7927125 12.9220499,19.1598352 C13.3985129,19.4847358 15.0631406,20.4247017 16.8567605,19.1376761 C16.8355112,18.9900484 16.8061812,18.7376141 16.7927133,18.4501444 C16.7876255,18.4261887 16.7867276,18.4025323 16.7894212,18.3776781 C16.7837348,18.2201687 16.7849319,18.0551731 16.7945091,17.8892791 C16.3904732,18.1980096 15.8622337,18.438466 15.1681899,18.515424 C15.0544613,18.5280008 14.9437256,18.5342892 14.8359827,18.5342892 C14.086571,18.5342892 13.4826122,18.24113 13.0064485,17.8431642 Z M12.3710647,11.2457353 C12.0780639,11.9572228 12.0002496,13.5706463 11.995461,14.1776265 C11.9948624,14.2794387 11.9260267,14.3677757 11.8275616,14.3935282 C11.8087066,14.3983194 11.7898516,14.4007149 11.7709966,14.4007149 C11.6916859,14.4007149 11.6162659,14.3584929 11.5758623,14.2866254 C11.4402858,14.0470674 11.3238636,13.8155944 11.21642,13.5883137 C11.2702914,13.8431436 11.3493029,14.1342066 11.4043715,14.3369326 C11.4782951,14.6082321 11.5480287,14.8645592 11.5872351,15.0804609 C11.6189594,15.2535416 11.6545744,15.3448731 11.678218,15.3900897 C11.7252059,15.3694279 11.7781795,15.3646367 11.8287588,15.3778124 C11.9017845,15.3978754 11.961941,15.4523748 11.984986,15.5248411 C11.9939646,15.5526897 12.9052899,18.3147941 15.1185085,18.0689477 C17.3341214,17.8228018 17.6076686,15.7239738 17.6181436,15.6347384 C17.6253265,15.5751483 17.6558536,15.5209483 17.7028415,15.4838168 C17.7498294,15.4469848 17.8102851,15.4299163 17.8689451,15.4377019 C17.9907545,15.4523748 18.1317181,15.4281196 18.1568581,15.3990731 C18.1562595,15.1292709 18.2304824,14.5806829 18.3498974,14.0102353 C18.2903396,14.1285171 18.2481403,14.2030796 18.2379646,14.220747 C18.197561,14.2911171 18.1230388,14.3330398 18.0434288,14.3330398 C18.0326545,14.3330398 18.0218802,14.3324409 18.0111059,14.3306442 C17.9198237,14.3171691 17.8461994,14.2497934 17.8252494,14.1602586 C17.6720151,13.512254 17.4699971,12.75555 17.378715,12.5291676 C17.2781549,12.5141953 17.0659613,12.5055113 16.8750169,12.4977256 C15.8200344,12.4543057 13.8567195,12.3734549 12.3773497,11.2508259 C12.3752547,11.2490293 12.373459,11.247532 12.3710647,11.2457353 Z M12.4979619,8.56298453 C12.4360097,8.60640443 11.8488109,9.03671059 11.8323502,9.62901789 C11.8293573,9.7266378 11.8440224,9.82455716 11.8721552,9.92277596 C11.8987917,10.002429 11.934706,10.085376 11.9769053,10.1689219 C12.1097881,10.4105761 12.3318582,10.6525297 12.6488019,10.8929861 C14.0156403,11.9305719 15.887673,12.00753 16.8932734,12.0488537 C17.4433607,12.0713123 17.6286186,12.0790979 17.7285801,12.2294206 C17.8252494,12.3743532 17.9847687,12.9453997 18.1125638,13.4469744 C18.5097161,12.510003 19.1067913,10.5665882 18.0132009,9.13313271 C15.5261358,6.91033339 12.6505976,8.47674363 12.4979619,8.56298453 Z M11.4289129,10.0147064 C11.097005,10.4351308 10.7016484,11.4062392 11.5794537,13.3134208 C11.6246459,12.5833676 11.7317902,11.5697376 11.9852853,11.0058778 C11.8679652,10.8579507 11.6776194,10.5959341 11.5402473,10.3015771 C11.5204944,10.2611517 11.5031358,10.2204268 11.4872737,10.1794025 L11.4723094,10.1394263 L11.4723094,10.1394263 L11.4582429,10.09945 L11.4348986,10.0317749 C11.4331029,10.0260854 11.4307086,10.0203959 11.4289129,10.0147064 Z" id="Combined-Shape-Copy" fill="#673391" fill-rule="nonzero"></path>
            </g>
        </g>
    </g>
</svg>