<?xml version="1.0" encoding="UTF-8"?>
<svg width="32px" height="32px" viewBox="0 0 32 32" version="1.1" xmlns="http://www.w3.org/2000/svg" xmlns:xlink="http://www.w3.org/1999/xlink">
    <title>Icon 3 filled</title>
    <g id="Page-1" stroke="none" stroke-width="1" fill="none" fill-rule="evenodd">
        <g id="A10" transform="translate(-15.000000, -339.000000)">
            <g id="Icon-3-filled" transform="translate(16.000000, 340.000000)">
                <circle id="Oval-Copy-7" stroke="#747474" fill="#FFFFFF" cx="15" cy="15" r="15"></circle>
                <path d="M20.3346667,5 C20.9584233,5 21.4710258,5.47591083 21.5291733,6.08443167 L21.5346667,6.2 L21.5346667,23.8 C21.5346667,24.4237567 21.0587558,24.9363592 20.450235,24.9945067 L20.3346667,25 L10.3666667,25 C9.74291,25 9.2303075,24.5240892 9.17216,23.9155683 L9.16666667,23.8 L9.16666667,6.2 C9.16666667,5.57624333 9.6425775,5.06364083 10.2510983,5.00549333 L10.3666667,5 L20.3346667,5 Z M20.7666683,20.96 L9.96666667,20.96 L9.96666667,23.8 C9.96666667,23.9963675 10.1081667,24.1596867 10.2947658,24.1935558 L10.3666667,24.2 L20.3346667,24.2 C20.44618,24.20895 20.556345,24.1707933 20.6384317,24.0947867 C20.7041017,24.0339817 20.7469992,23.9533983 20.7613492,23.86632 L20.7666683,23.8 L20.7666683,20.96 Z M15.3546667,21.152 C16.098235,21.1541967 16.70047,21.7564317 16.7026667,22.5 C16.7026667,23.045215 16.3742367,23.536745 15.8705242,23.74539 C15.3668108,23.9540342 14.7870117,23.838705 14.4014867,23.45318 C14.0159617,23.067655 13.9006325,22.4878558 14.1092767,21.9841425 C14.3179217,21.48043 14.8094517,21.152 15.3546667,21.152 Z M15.3546667,21.952 C15.052015,21.952 14.8066667,22.1973483 14.8066667,22.5 C14.8066667,22.8026517 15.052015,23.048 15.3546667,23.048 C15.6573183,23.048 15.9026667,22.8026517 15.9026667,22.5 C15.9026667,22.1973483 15.6573183,21.952 15.3546667,21.952 Z M20.7666667,7.984 L9.96666667,7.984 L9.96666667,20.16 L20.7666667,20.16 L20.7666667,7.984 Z M19.5666667,16.536 C19.7875808,16.536 19.9666667,16.7150858 19.9666667,16.936 L19.9666667,16.936 L19.9666667,18.468 C19.9666667,18.6889142 19.7875808,18.868 19.5666667,18.868 C19.3457525,18.868 19.1666667,18.6889142 19.1666667,18.468 L19.1666667,18.468 L19.1666667,16.936 C19.1666667,16.7150858 19.3457525,16.536 19.5666667,16.536 Z M19.5666667,8.74 C19.7630342,8.74 19.9263533,8.8815 19.9602225,9.06809917 L19.9666667,9.14 L19.9666667,15.848 C19.9666667,16.0689142 19.7875808,16.248 19.5666667,16.248 C19.3702992,16.248 19.20698,16.1065 19.1731108,15.9199008 L19.1666667,15.848 L19.1666667,9.14 C19.1666667,8.91908583 19.3457525,8.74 19.5666667,8.74 Z M20.3346667,5.8 L10.3666667,5.8 C10.1702992,5.8 10.00698,5.9415 9.97311083,6.12809917 L9.96666667,6.2 L9.96666667,7.184 L20.7346667,7.184 L20.7346667,6.2 C20.7346667,5.97908583 20.5555808,5.8 20.3346667,5.8 Z M16.2186667,6.2 C16.4395808,6.2 16.6186667,6.37908583 16.6186667,6.6 C16.6186667,6.7963675 16.4771667,6.95968667 16.2905675,6.99355583 L16.2186667,7 L14.2186667,7 C13.9977525,7 13.8186667,6.82091417 13.8186667,6.6 C13.8186667,6.4036325 13.9601667,6.24031333 14.1467658,6.20644417 L14.2186667,6.2 L16.2186667,6.2 Z" id="Mobile-Copy" fill="#747474" fill-rule="nonzero"></path>
            </g>
        </g>
    </g>
</svg>