<?xml version="1.0" encoding="UTF-8"?>
<svg width="32px" height="32px" viewBox="0 0 32 32" version="1.1" xmlns="http://www.w3.org/2000/svg" xmlns:xlink="http://www.w3.org/1999/xlink">
    <title>Icon 1 Active</title>
    <g id="Page-1" stroke="none" stroke-width="1" fill="none" fill-rule="evenodd">
        <g id="A05" transform="translate(-15.000000, -208.000000)" fill="#FFFFFF" stroke="#A60072">
            <g id="Icon-1" transform="translate(16.000000, 209.000000)">
                <circle id="Icon-1-Active" cx="15" cy="15" r="15"></circle>
				                <path d="M15,7.5 C17.0710678,7.5 18.75,9.17893219 18.75,11.25 C18.75,12.0875741 18.475406,12.8610133 18.0113313,13.4852045 C20.6539705,14.5316322 22.5,16.9173499 22.5,19.6926921 C22.5,23.4357693 7.5,23.4357693 7.5,19.6926921 C7.5,16.9173499 9.34602952,14.5316322 11.9890218,13.4835375 C11.524594,12.8610133 11.25,12.0875741 11.25,11.25 C11.25,9.17893219 12.9289322,7.5 15,7.5 Z M17.754724,13.7936878 L17.7165094,13.8351751 C17.0334158,14.5527506 16.0689382,15 15,15 C13.9112128,15 12.9308018,14.5359866 12.24573,13.794923 L12.2675355,13.7852384 C9.66172606,14.7696437 7.91666667,17.0824012 7.91666667,19.6926921 C7.91666667,22.9337367 22.0833333,22.9337367 22.0833333,19.6926921 C22.0833333,17.0898408 20.348207,14.7828293 17.754724,13.7936878 Z M15,7.91666667 C13.1590508,7.91666667 11.6666667,9.40905083 11.6666667,11.25 C11.6666667,12.0386535 11.9405525,12.7633376 12.398397,13.3341251 L12.4007033,13.3333333 C12.9851754,14.0579944 13.9317283,14.5289276 15,14.5289276 C16.0682717,14.5289276 17.0148246,14.0579944 17.5992967,13.3333333 C18.0594475,12.7633376 18.3333333,12.0386535 18.3333333,11.25 C18.3333333,9.40905083 16.8409492,7.91666667 15,7.91666667 Z" id="Combined-Shape-Copy" stroke-width="0.8" fill="#673391" fill-rule="nonzero"></path>
            </g>
        </g>
    </g>
</svg>