<?xml version="1.0" encoding="UTF-8"?>
<svg width="32px" height="32px" viewBox="0 0 32 32" version="1.1" xmlns="http://www.w3.org/2000/svg" xmlns:xlink="http://www.w3.org/1999/xlink">
    <title>Icon 4 active</title>
    <g id="Page-1" stroke="none" stroke-width="1" fill="none" fill-rule="evenodd">
        <g id="A10" transform="translate(-15.000000, -405.000000)">
            <g id="Icon-4-active" transform="translate(16.000000, 406.000000)">
                <circle id="Oval-Copy-7" stroke="#98026F" fill="#FFFFFF" cx="15" cy="15" r="15"></circle>
                <path d="M15.3431373,7.5 C15.8304473,7.5 16.2254902,7.89504287 16.2254902,8.38235294 L16.2246667,8.823 L19.754902,8.82352941 C20.0633396,8.82352941 20.2677057,9.12732517 20.1736579,9.40445969 L20.1404637,9.47913253 L18.6960784,12.0785294 L20.1268442,14.3215564 C20.3008055,14.5942599 20.131351,14.9454986 19.8273495,14.9942842 L19.8273495,14.9942842 L19.754902,15 L15.7982477,15 C15.5545926,15 15.3570712,14.8024786 15.3570712,14.5588235 L15.3570712,14.5588235 C15.3525843,14.5587863 15.3478651,14.5588235 15.3431373,14.5588235 L10.1666667,14.558 L10.1666667,22.0588235 C10.1666667,22.3024786 9.94280904,22.5 9.66666667,22.5 C9.42120678,22.5 9.2170583,22.3439337 9.17472234,22.1381256 L9.16666667,22.0588235 L9.16666667,7.94117647 C9.16666667,7.69752143 9.39052429,7.5 9.66666667,7.5 C9.72586582,7.5 9.78266204,7.50907777 9.83536492,7.52574175 C9.90332233,7.50908737 9.97510973,7.5 10.0490196,7.5 L15.3431373,7.5 Z M19.0057843,9.70588235 L16.2396078,9.70588235 L16.2396078,14.1176471 L18.9501961,14.1176471 L17.8100052,12.3303116 C17.7373713,12.21645 17.7216343,12.0770406 17.7639909,11.9517677 L17.7639909,11.9517677 L17.7963856,11.8786178 L19.0057843,9.70588235 Z M15.3431373,8.38235294 L10.1666667,8.382 L10.1666667,13.676 L15.3431373,13.6764706 L15.3431373,8.38235294 Z" id="Combined-Shape-Copy-8" fill="#98026F" fill-rule="nonzero"></path>
            </g>
        </g>
    </g>
</svg>