<?xml version="1.0" encoding="UTF-8"?>
<svg width="24px" height="16px" viewBox="0 0 24 16" version="1.1" xmlns="http://www.w3.org/2000/svg" xmlns:xlink="http://www.w3.org/1999/xlink">
    <title>Record</title>
    <g id="Page-1" stroke="none" stroke-width="1" fill="none" fill-rule="evenodd">
        <g id="A22" transform="translate(-106.000000, -583.000000)" fill="#332372" fill-rule="nonzero">
            <path d="M129.609625,585.529835 C129.364516,585.353035 129.049609,585.305365 128.763578,585.402071 L123.940844,587.030918 L123.940844,585.352941 C123.940844,584.055529 122.902563,583 121.626297,583 L108.314594,583 C107.038328,583 106,584.055529 106,585.352941 L106,596.647059 C106,597.944471 107.038328,599 108.314594,599 L121.626297,599 C122.902563,599 123.940844,597.944471 123.940844,596.647059 L123.940844,594.969082 L128.763578,596.597929 C129.049656,596.694541 129.364516,596.646965 129.609625,596.470165 C129.854688,596.293318 130,596.008847 130,595.705882 L130,586.294118 C130,585.991153 129.854688,585.706682 129.609625,585.529835 Z M128.125,594.396235 L123.302266,592.767388 C122.695047,592.562259 122.065844,593.016847 122.065844,593.659435 L122.065844,596.647059 C122.065844,596.906541 121.868687,597.117647 121.626297,597.117647 L108.314594,597.117647 C108.072203,597.117647 107.875,596.906541 107.875,596.647059 L107.875,585.352941 C107.875,585.093459 108.072203,584.882353 108.314594,584.882353 L121.626297,584.882353 C121.868687,584.882353 122.065844,585.093459 122.065844,585.352941 L122.065844,588.340565 C122.065844,588.983718 122.695422,589.437459 123.302266,589.232612 L128.125,587.603765 L128.125,594.396235 Z" id="Record"></path>
        </g>
    </g>
</svg>