<svg id="search_3_" data-name="search(3)" xmlns="http://www.w3.org/2000/svg" width="19" height="19" viewBox="0 0 19 19">
  <g id="Group_44" data-name="Group 44" transform="translate(2.857 4.118)">
    <g id="Group_43" data-name="Group 43">
      <path id="Path_38" data-name="Path 38" d="M79.367,111.181a.7.7,0,0,0-.993,0A4.8,4.8,0,0,0,77,115.07a.7.7,0,0,0,.7.632c.023,0,.047,0,.07,0a.7.7,0,0,0,.629-.768,3.4,3.4,0,0,1,.968-2.756A.7.7,0,0,0,79.367,111.181Z" transform="translate(-76.978 -110.975)" fill="#5e50ad"/>
    </g>
  </g>
  <g id="Group_46" data-name="Group 46">
    <g id="Group_45" data-name="Group 45">
      <path id="Path_39" data-name="Path 39" d="M8.026,0a8.026,8.026,0,1,0,8.026,8.026A8.035,8.035,0,0,0,8.026,0Zm0,14.648a6.622,6.622,0,1,1,6.622-6.622A6.629,6.629,0,0,1,8.026,14.648Z" fill="#5e50ad"/>
    </g>
  </g>
  <g id="Group_48" data-name="Group 48" transform="translate(12.495 12.495)">
    <g id="Group_47" data-name="Group 47">
      <path id="Path_40" data-name="Path 40" d="M343.008,342.016l-5.1-5.1a.7.7,0,0,0-.993.993l5.1,5.1a.7.7,0,1,0,.993-.993Z" transform="translate(-336.708 -336.71)" fill="#5e50ad"/>
    </g>
  </g>
</svg>
