<?xml version="1.0" encoding="UTF-8"?>
<svg width="12px" height="12px" viewBox="0 0 12 12" version="1.1" xmlns="http://www.w3.org/2000/svg" xmlns:xlink="http://www.w3.org/1999/xlink">
    <title>Selected Green tick</title>
    <g id="Page-1" stroke="none" stroke-width="1" fill="none" fill-rule="evenodd">
        <g id="B01" transform="translate(-108.000000, -478.000000)" fill="#009245">
            <g id="Selected-Green-tick" transform="translate(108.000000, 478.000000)">
                <path d="M6,0 C9.3138,0 12,2.6862 12,6 C12,9.3138 9.3138,12 6,12 C2.6862,12 0,9.3138 0,6 C0,2.6862 2.6862,0 6,0 Z M6,0.6 C3.0225,0.6 0.6,3.0225 0.6,6 C0.6,8.9775 3.0225,11.4 6,11.4 C8.9775,11.4 11.4,8.9775 11.4,6 C11.4,3.0225 8.9775,0.6 6,0.6 Z" id="Fill-1"></path>
                <path d="M5.1999,7.96671 C5.1231,7.96671 5.0463,7.93731 4.9878,7.87881 L3.1878,6.07881 C3.0705,5.96151 3.0705,5.77191 3.1878,5.65461 C3.3051,5.53731 3.4947,5.53731 3.612,5.65461 L5.202,7.24461 L8.3901,4.11921 C8.508,4.00311 8.6982,4.00461 8.8143,4.12311 C8.9304,4.24161 8.9286,4.43151 8.8101,4.54761 L5.4099,7.88091 C5.3517,7.93821 5.2758,7.96671 5.1999,7.96671" id="Fill-3"></path>
            </g>
        </g>
    </g>
</svg>